<svg xmlns="http://www.w3.org/2000/svg" width="900" height="520" viewBox="0 0 900 520" role="img" aria-labelledby="title desc">
<title>Cumulative Energy</title>
<desc>Energy is accumulated from power and sampling interval, reported in joules.</desc>
<rect width="100%" height="100%" fill="#ffffff"/>
<text x="36" y="38" font-family="Arial, sans-serif" font-size="22" font-weight="700" fill="#0f172a">Cumulative Energy</text>
<text x="36" y="62" font-family="Arial, sans-serif" font-size="13" fill="#475569">Energy is accumulated from power and sampling interval, reported in joules.</text>
<line x1="82" y1="92.0" x2="840" y2="92.0" stroke="#cbd5e1" stroke-width="1"/>
<line x1="82" y1="172.0" x2="840" y2="172.0" stroke="#cbd5e1" stroke-width="1"/>
<line x1="82" y1="252.0" x2="840" y2="252.0" stroke="#cbd5e1" stroke-width="1"/>
<line x1="82" y1="332.0" x2="840" y2="332.0" stroke="#cbd5e1" stroke-width="1"/>
<line x1="82" y1="412.0" x2="840" y2="412.0" stroke="#cbd5e1" stroke-width="1"/>
<line x1="82" y1="412" x2="840" y2="412" stroke="#334155" stroke-width="1.5"/>
<line x1="82" y1="92" x2="82" y2="412" stroke="#334155" stroke-width="1.5"/>
<text x="72" y="252.0" transform="rotate(-90 72 252.0)" text-anchor="middle" font-family="Arial, sans-serif" font-size="12" fill="#334155">Energy (J)</text>
<text x="461.0" y="448" text-anchor="middle" font-family="Arial, sans-serif" font-size="12" fill="#334155">Time (seconds)</text>
<polyline points="82.0,389.9 132.5,372.2 183.1,354.6 233.6,336.4 284.1,318.6 334.7,300.4 385.2,282.3 435.7,264.0 486.3,245.2 536.8,226.8 587.3,208.3 637.9,189.5 688.4,170.7 738.9,151.8 789.5,132.9 840.0,114.1" fill="none" stroke="#2563eb" stroke-width="2.8"/>
<rect x="90" y="446" width="18" height="4" rx="2" fill="#2563eb"/>
<text x="116" y="454" font-family="Arial, sans-serif" font-size="13" fill="#0f172a">LED strip</text>
<polyline points="82.0,389.9 132.5,372.0 183.1,354.3 233.6,336.6 284.1,318.2 334.7,300.3 385.2,282.6 435.7,264.4 486.3,246.2 536.8,227.2 587.3,208.9 637.9,190.1 688.4,171.2 738.9,152.2 789.5,132.3 840.0,114.1" fill="none" stroke="#dc2626" stroke-width="2.8"/>
<rect x="280" y="446" width="18" height="4" rx="2" fill="#dc2626"/>
<text x="306" y="454" font-family="Arial, sans-serif" font-size="13" fill="#0f172a">power resistor</text>
<polyline points="82.0,389.9 132.5,370.9 183.1,351.4 233.6,331.8 284.1,311.3 334.7,290.7 385.2,269.6 435.7,247.8 486.3,225.9 536.8,204.3 587.3,189.0 637.9,174.2 688.4,159.5 738.9,144.2 789.5,129.1 840.0,114.1" fill="none" stroke="#9333ea" stroke-width="2.8"/>
<rect x="470" y="446" width="18" height="4" rx="2" fill="#9333ea"/>
<text x="496" y="454" font-family="Arial, sans-serif" font-size="13" fill="#0f172a">pulsed load</text>
<polyline points="82.0,389.9 132.5,369.4 183.1,349.4 233.6,330.3 284.1,311.4 334.7,293.0 385.2,275.0 435.7,256.5 486.3,238.2 536.8,220.1 587.3,202.1 637.9,183.8 688.4,166.5 738.9,148.9 789.5,131.6 840.0,114.1" fill="none" stroke="#16a34a" stroke-width="2.8"/>
<rect x="660" y="446" width="18" height="4" rx="2" fill="#16a34a"/>
<text x="686" y="454" font-family="Arial, sans-serif" font-size="13" fill="#0f172a">small DC fan</text>
</svg>