<svg xmlns="http://www.w3.org/2000/svg" width="900" height="520" viewBox="0 0 900 520" role="img" aria-labelledby="title desc">
<title>Voltage and Current Over Time</title>
<desc>Representative low-voltage fan profile from the simulation-first dataset.</desc>
<rect width="100%" height="100%" fill="#ffffff"/>
<text x="36" y="38" font-family="Arial, sans-serif" font-size="22" font-weight="700" fill="#0f172a">Voltage and Current Over Time</text>
<text x="36" y="62" font-family="Arial, sans-serif" font-size="13" fill="#475569">Representative low-voltage fan profile from the simulation-first dataset.</text>
<line x1="80" y1="92.0" x2="840" y2="92.0" stroke="#cbd5e1" stroke-width="1"/>
<line x1="80" y1="129.5" x2="840" y2="129.5" stroke="#cbd5e1" stroke-width="1"/>
<line x1="80" y1="167.0" x2="840" y2="167.0" stroke="#cbd5e1" stroke-width="1"/>
<line x1="80" y1="204.5" x2="840" y2="204.5" stroke="#cbd5e1" stroke-width="1"/>
<line x1="80" y1="242.0" x2="840" y2="242.0" stroke="#cbd5e1" stroke-width="1"/>
<line x1="80" y1="242" x2="840" y2="242" stroke="#334155" stroke-width="1.5"/>
<line x1="80" y1="92" x2="80" y2="242" stroke="#334155" stroke-width="1.5"/>
<text x="70" y="167.0" transform="rotate(-90 70 167.0)" text-anchor="middle" font-family="Arial, sans-serif" font-size="12" fill="#334155">Voltage (V)</text>
<text x="460.0" y="278" text-anchor="middle" font-family="Arial, sans-serif" font-size="12" fill="#334155">Time (seconds)</text>
<line x1="80" y1="310.0" x2="840" y2="310.0" stroke="#cbd5e1" stroke-width="1"/>
<line x1="80" y1="347.5" x2="840" y2="347.5" stroke="#cbd5e1" stroke-width="1"/>
<line x1="80" y1="385.0" x2="840" y2="385.0" stroke="#cbd5e1" stroke-width="1"/>
<line x1="80" y1="422.5" x2="840" y2="422.5" stroke="#cbd5e1" stroke-width="1"/>
<line x1="80" y1="460.0" x2="840" y2="460.0" stroke="#cbd5e1" stroke-width="1"/>
<line x1="80" y1="460" x2="840" y2="460" stroke="#334155" stroke-width="1.5"/>
<line x1="80" y1="310" x2="80" y2="460" stroke="#334155" stroke-width="1.5"/>
<text x="70" y="385.0" transform="rotate(-90 70 385.0)" text-anchor="middle" font-family="Arial, sans-serif" font-size="12" fill="#334155">Current (A)</text>
<text x="460.0" y="496" text-anchor="middle" font-family="Arial, sans-serif" font-size="12" fill="#334155">Time (seconds)</text>
<polyline points="80.0,148.8 130.7,205.1 181.3,231.7 232.0,230.0 282.7,163.7 333.3,147.1 384.0,210.1 434.7,148.8 485.3,128.9 536.0,216.7 586.7,142.1 637.3,110.6 688.0,178.6 738.7,190.2 789.3,105.7 840.0,102.3" fill="none" stroke="#0f766e" stroke-width="3"/>
<polyline points="80.0,320.3 130.7,348.4 181.3,360.5 232.0,389.2 282.7,398.1 333.3,413.7 384.0,424.9 434.7,411.5 485.3,419.2 536.0,419.3 586.7,425.8 637.3,421.3 688.0,443.7 738.7,438.8 789.3,449.7 840.0,442.5" fill="none" stroke="#b45309" stroke-width="3"/>
<text x="720" y="112" font-family="Arial, sans-serif" font-size="13" fill="#0f766e">Voltage</text>
<text x="720" y="330" font-family="Arial, sans-serif" font-size="13" fill="#b45309">Current</text>
</svg>